<svg xmlns="http://www.w3.org/2000/svg" viewBox="0 0 128 128" width="128" height="128" fill="none">
  <circle cx="64" cy="64" r="64" fill="#0e7490"/>
  <circle cx="64" cy="50" r="26" fill="#f8fafc"/>
  <!-- Hair long -->
  <path d="M38 48 C 38 22, 90 22, 90 48 C 90 70, 84 82, 84 82 C 84 82, 80 50, 76 46 C 72 42, 56 42, 52 46 C 48 50, 44 82, 44 82 C 44 82, 38 70, 38 48 Z" fill="#334155"/>
  <!-- Smile -->
  <path d="M56 63 Q 64 68 72 63" stroke="#0f172a" stroke-width="2" stroke-linecap="round" fill="none"/>
  <!-- Eyes -->
  <circle cx="53" cy="52" r="3" fill="#0f172a"/>
  <circle cx="75" cy="52" r="3" fill="#0f172a"/>
  <!-- Body/Dress -->
  <path d="M26 128 C 26 96, 42 86, 64 86 C 86 86, 102 96, 102 128 Z" fill="#0891b2"/>
  <path d="M50 86 Q 64 100 78 86" stroke="#ffffff" stroke-width="3" fill="none"/>
</svg>
